<svg id="Layer_1" data-name="Layer 1" xmlns="http://www.w3.org/2000/svg" viewBox="0 0 2670.39 2642.17"><path d="M849.14,2324.49a101.72,101.72,0,0,0,155.46,53.23c9-6.26,21.58-12.32,40.26-3.82,19.84,9,44.68,35.22,49.41,79.39,1.42,13.18-.46,39.64-3,68.34-.72,7.79-1.48,15.77-2.19,23.66-12.22,131.55-30.69,330.37,82.9,473.42,56.43,71.09,135.31,95.11,213.06,95.11,78.58,0,155.93-24.58,207.63-50A101.75,101.75,0,0,0,1503.31,2881c-29.62,14.2-109.41,40.41-152.41,24.48-8-2.9-14.66-7.23-19.54-13.38-62.75-79-49.36-222.89-39.59-328,3.56-38.16,6.76-72.41,6.46-102.74a291.6,291.6,0,0,0-1.53-29.77c-11.6-108.14-75.77-201.21-167.52-243-80.56-36.64-168.44-28.55-241.11,22.24A101.75,101.75,0,0,0,849.14,2324.49Z" transform="translate(-829.25 -902.71)" style="fill:#fff"/><path d="M862.87,2352.55a101.77,101.77,0,0,0,141.72,25.14c8.95-6.26,21.58-12.31,40.25-3.81,19.85,9,44.68,35.21,49.41,79.38,1.43,13.18-.45,39.64-3,68.34,75.57-114.19,203.81-61.57,207-60.25a294.72,294.72,0,0,0-1.52-29.77c-11.61-108.13-75.78-201.21-167.53-243-80.55-36.64-168.44-28.55-241.11,22.24A101.78,101.78,0,0,0,862.87,2352.55Z" transform="translate(-829.25 -902.71)" style="fill:#ff8e1d"/><g style="opacity:0.6000000000000001"><path d="M857.74,2344.39a101.59,101.59,0,0,1,43.41-88.14c72.67-50.79,160.55-58.88,241.11-22.24,68.7,31.3,122,91.34,149.25,165-19.79-94-79.94-172.87-162.33-210.37-80.56-36.64-168.44-28.55-241.11,22.24A101.76,101.76,0,0,0,857.74,2344.39Z" transform="translate(-829.25 -902.71)" style="fill:#fff"/></g><g style="opacity:0.2"><path d="M849.14,2324.49a101.72,101.72,0,0,0,155.46,53.23c9-6.26,21.58-12.32,40.26-3.82,19.84,9,44.68,35.22,49.41,79.39,1.42,13.18-.46,39.64-3,68.34-.72,7.79-1.48,15.77-2.19,23.66-12.22,131.55-30.69,330.37,82.9,473.42,56.43,71.09,135.31,95.11,213.06,95.11,78.58,0,155.93-24.58,207.63-50A101.75,101.75,0,0,0,1503.31,2881c-29.62,14.2-109.41,40.41-152.41,24.48-9.47,39-29,72.21-68,73-95.26,1.94-131.9-206.25-128.24-312.81s19.4-293.17-55-352.09C1002.57,2236.6,931.12,2381.38,849.14,2324.49Z" transform="translate(-829.25 -902.71)" style="fill:#000072"/></g><path d="M1385,3129.06c-94.82,0-172.63-34.89-225-100.89-117.38-147.83-98.58-350.29-86.14-484.27l2.18-23.69c2.12-23.85,4.38-52.87,3-65.31-4.06-37.8-24.37-59.78-40.54-67.12-11-5-17.58-2.9-25.21,2.43-52.86,37-126,24-163-28.91a0,0,0,0,1,0,0,117,117,0,0,1,29-163c77.19-53.94,170.56-62.55,256.16-23.61,96.63,44,164.21,141.8,176.39,255.26a307.23,307.23,0,0,1,1.61,31.32c.31,30.9-2.84,64.65-6.48,103.73l0,.51c-9.53,102.47-22.58,242.83,36.35,317.06,22,27.64,111.54,4.69,153.39-15.37,57.77-28.13,127.88-4.05,156.19,53.72a117,117,0,0,1-53.51,156.6C1567.83,3093,1483.79,3129.06,1385,3129.06Zm-357.9-774.64a57.66,57.66,0,0,1,24,5.56c23.48,10.66,52.84,41.07,58.26,91.66,1.62,14.93-.48,43.1-3,71.31l-2.18,23.69c-12,129.2-30.11,324.32,79.65,462.55,47.06,59.28,114.72,89.34,201.11,89.34,64.08,0,139.17-18.1,200.89-48.41A86.49,86.49,0,0,0,1510,2894.7c-30.07,14.4-150.23,57.65-190.59,6.87-66.56-83.84-52.85-231.25-42.84-338.89l0-.5c3.57-38.24,6.65-71.26,6.35-100.67a275.69,275.69,0,0,0-1.44-28.3c-11-102.77-71.83-191.18-158.67-230.72-75.54-34.36-157.92-26.75-226,20.85a86.51,86.51,0,0,0-21.42,120.46h0a86.52,86.52,0,0,0,120.46,21.38C1000.35,2362,1011.24,2354.42,1027.13,2354.42Z" transform="translate(-829.25 -902.71)" style="fill:#000072"/><path d="M1403.11,3382.86c58.62,85.49,85.49,112.36,149,102.59,0,0,70.84,50.23,139.23,1.89,0,0,51.3,20.1,75.72-33.64s-48.85-100.15-48.85-100.15l51.29-70.84c0,.05.06.16.06.21.4,2.8,5.49,34.24,21.83,70.12,0,.05,0,.1,0,.2,30.38,66.62,99.43,148.39,249.2,90.69,0,0,97.7,17.1,127-56.18,0,0,58.63-44,44-107.48-3.87-16.84-13.43-27.68-25.39-34.45-33.13-18.93-84.53-7.07-84.53-7.07s0-93.49-19.54-166.46c0,0,1.48-.66,4.17-2.14,26.82-14.25,173.48-106.86,166.82-417.64H2346s-4.89,114.81,79.38,122.14c70.43,6.1,122.9-86.67,107-170.07a148.79,148.79,0,0,0-17.81-47.33c-53.74-90.38-197.86-70.84-197.86-70.84s-30.07-94.14-112.87-181.41c-79-83.15-205.79-160.15-400.08-143.46-180.86,15.53-330.72,63.21-383.14,177.81a213.8,213.8,0,0,0-15.72,50c-8.24,44.38-4.78,96.64,12.93,158.11,0,0-1.33,52-7.94,102.69a468.86,468.86,0,0,1-9.16,51.2c-14.66,58.62-68.4,263.8,85.49,354.18,0,0-15.37,50.33-38.73,92.77-7.53,13.69-15.87,26.56-24.78,36.69-15,16.94-30.79,38.83-40.2,64.63C1368.81,3286.89,1368.45,3332.33,1403.11,3382.86Z" transform="translate(-829.25 -902.71)" style="fill:#fff"/><g style="opacity:0.2"><path d="M1869.75,2844.57c134.45,51.65,192,150.42,216.58,225.58,26.82-14.25,173.48-106.86,166.82-417.64H2346s-4.89,114.81,79.38,122.14c70.43,6.1,122.9-86.67,107-170.07-23.71,43.51-63.87,76-107,47.93-70.27-45.8-47-49.51-105.59-63.15S2170.1,2431.3,2170.1,2431.3C2179.41,2882.27,1957.33,2867.67,1869.75,2844.57Z" transform="translate(-829.25 -902.71)" style="fill:#000072"/></g><g style="opacity:0.2"><path d="M1420.56,2339.35c47.48,31.7,108.85,57.15,179.13,73.68a789.64,789.64,0,0,0,116.08,18.27c24.32,2.09,49.26,3.16,74.65,3.16,177.29,0,331.89-52.16,413.36-129.46-79-83.15-205.79-160.15-400.08-143.46C1622.84,2177.07,1473,2224.75,1420.56,2339.35Z" transform="translate(-829.25 -902.71)" style="fill:#000072"/></g><path d="M1769.54,3282.89s95.89-112.69,55.59-209.43-131.91-77.33-223.51-147.49-112.26-189.72-217.34-144.59c0,0-38.3,171.45,48.79,230.17S1684.64,3101.76,1769.54,3282.89Z" transform="translate(-829.25 -902.71)" style="fill:#ff8e1d"/><path d="M1626.1,3523.39c-31.9,0-60.27-11.27-77.62-22-69.13,8.58-100.41-25.93-158-109.87-48.75-71.1-41.6-146,20.69-216.59,26.6-30.14,48.36-88.4,56.7-112.73-62.64-41.14-97.19-105.63-102.76-191.89-4.63-71.48,12.09-138.19,20.11-170.25l.6-2.37c12.84-51.34,16.08-133.52,16.58-148.27-28.78-101.48-21-185.4,23-249.48,59.58-86.67,182.88-136.91,377-153.58,211.8-18.21,344.43,74,418.34,154.5,64.05,69.78,95.65,141.62,106.26,169.25,37.94-2.71,151.47-3.33,200.63,79.36,37.2,62.56,24.47,137.37-4.65,183.76-24.68,39.33-60.81,60-98.95,56.65-69.67-6.06-90.79-75.38-93.2-122.07H2268.6c1.61,289.22-128.29,388.49-168.74,412.37,12.42,52.73,15.82,111.65,16.75,140.63,40.13-4.49,97.6,2.9,109.87,56,14.68,63.61-32.74,109-46.27,120.38-27.2,61.12-99.36,67.82-138,62.42-162.77,60.77-235.67-36.37-264.72-100.05-.16-.35-.3-.7-.44-1.06a317.1,317.1,0,0,1-14.79-39.85l-22.85,31.54c22.57,18.19,64,60.22,41.49,109.8-21.51,47.32-62.73,50.24-87.23,44.06A125.91,125.91,0,0,1,1626.1,3523.39Zm-74-53.23a15.3,15.3,0,0,1,8.84,2.81c2.51,1.76,63.1,43.21,121.58,1.87a15.26,15.26,0,0,1,14.38-1.74c6.27,2.35,38.94,12.34,56.26-25.74,18.6-40.93-42.53-80.56-43.15-81a15.3,15.3,0,0,1-4.17-21.84l51.29-70.83a15.26,15.26,0,0,1,27.18,5.25,14.52,14.52,0,0,1,.34,1.72h0c0,.31,4.58,30.77,20.61,66,.15.33.3.66.42,1,30.47,66.22,95,133.79,229.45,82a15.18,15.18,0,0,1,8.12-.79c3.47.6,85.91,13.93,110.21-46.82a15.27,15.27,0,0,1,5-6.54c2-1.54,50.44-39,38.25-91.83-11-47.84-90.83-30.26-91.63-30.08a15.29,15.29,0,0,1-18.68-14.88c0-.91-.24-92.38-19-162.5a15.27,15.27,0,0,1,8.64-17.95c.36-.16,42.48-19.46,83.21-78.38,37.89-54.81,82.28-156,78.62-327.07a15.27,15.27,0,0,1,15.26-15.6H2346a15.29,15.29,0,0,1,15.26,15.92c-.17,4.07-3.17,100.31,65.45,106.27,26.42,2.29,52.06-13.19,70.44-42.46,23.4-37.28,34.72-100.72,4.27-151.92-47.87-80.52-181.35-63.7-182.69-63.51A15.22,15.22,0,0,1,2302.1,2491c-.28-.86-29-88.42-104.68-170.46C2096.73,2211.41,1964.71,2163,1805,2176.73c-184.41,15.84-300.34,61.79-354.42,140.46-38.95,56.67-45.06,132.72-18.16,226a15.35,15.35,0,0,1,.59,4.62c-.1,4-2.65,97.62-17.55,157.19l-.6,2.39c-15.58,62.21-63,251.53,79,334.93a15.25,15.25,0,0,1,6.87,17.62c-1.14,3.72-28.27,91.6-66.66,135.1-52.73,59.76-58.91,120-18.39,179.12,57.86,84.39,79.67,104.5,134.09,96.14A15,15,0,0,1,1552.09,3470.16Z" transform="translate(-829.25 -902.71)" style="fill:#000072"/><path d="M1661.42,1234l555.09,212.21s-23.72-104.27-63.71-220.14c-48.15-139.64-119.85-296.17-201.93-307.17-32-4.27-63.41,7.48-93.13,28.76C1747.72,1026.13,1661.42,1234,1661.42,1234Z" transform="translate(-829.25 -902.71)" style="fill:#fff"/><g style="opacity:0.2"><path d="M1661.42,1234l555.09,212.21s-23.72-104.27-63.71-220.14c-162.39-35.47-232-194.09-240-242.23-4.58-27.58-31.1-35.22-55.07-36.18C1747.72,1026.13,1661.42,1234,1661.42,1234Z" transform="translate(-829.25 -902.71)" style="fill:#000072"/></g><path d="M1486.14,1257.75s-394.1-116.41-461.65-46.41c-77.56,80.36,0,383.49,153.88,515.39Z" transform="translate(-829.25 -902.71)" style="fill:#ff8e1d"/><g style="opacity:0.6000000000000001"><path d="M1064.55,1576.13c-56.94-130.74-70.89-273.63-21.22-325.08,54.71-56.69,323.34,8.81,423.7,35.83l19.13-29.11S1092,1141.34,1024.5,1211.36C969.75,1268.1,992.34,1435.93,1064.55,1576.13Z" transform="translate(-829.25 -902.71)" style="fill:#fff"/></g><path d="M1178.37,1742a15.23,15.23,0,0,1-9.93-3.68c-115.16-98.71-183.45-282-189.25-404.37-2.88-60.91,9-107,34.31-133.21,32.27-33.43,120.58-35.87,270-7.45,106.48,20.26,206,49.52,207,49.81a15.28,15.28,0,0,1,8.44,23l-307.77,469a15.29,15.29,0,0,1-10.62,6.74A15.54,15.54,0,0,1,1178.37,1742Zm-65.55-537.95c-37.2,0-65.12,5.22-77.35,17.89-19.06,19.75-28.21,59-25.78,110.57,5.27,111.29,64.85,275.58,165.68,371L1462,1266.67C1354.69,1236.29,1205.21,1204.05,1112.82,1204.05Z" transform="translate(-829.25 -902.71)" style="fill:#000072"/><path d="M1357.29,1364s-214.92-112.57-269.3-56.79c-71.44,73.28,91.6,284,98.93,293.11S1357.29,1364,1357.29,1364Z" transform="translate(-829.25 -902.71)" style="fill:#ff85b1"/><path d="M1105.72,1296.24c-.46,91.6,111,235.51,117,243,5,6.21,81.93-105.23,130.68-177.24C1326.83,1348.55,1172,1272.58,1105.72,1296.24Z" transform="translate(-829.25 -902.71)" style="fill:#ff85b1"/><g style="opacity:0.2"><path d="M1105.72,1296.24c-.46,91.6,111,235.51,117,243,5,6.21,81.93-105.23,130.68-177.24C1326.83,1348.55,1172,1272.58,1105.72,1296.24Z" transform="translate(-829.25 -902.71)" style="fill:#000072"/></g><path d="M1198.84,1590.79a14.26,14.26,0,0,0-16.74-4.4l-.76.37a6.81,6.81,0,0,0-.66.39c-.5.35-.19.13,0,0,14.85-15.55,27.17-33.9,40.1-51.28,42.48-59.14,83.32-119.71,123.8-180.27,0,0,5.63,22,5.63,22-26.08-14.14-53.56-27.34-81.15-39.13-41.09-17-83.59-33.4-127.86-36.82-53.94-4.92-69.91,31.76-62.57,80,1.15,8.25-11,10.28-12.7,2.22-9.74-41.8,2.15-92.44,51.29-99.74,72.61-11.1,180.88,35.82,247.16,66.45a14.88,14.88,0,0,1,5.63,22c-51.58,76.11-101.45,153.32-158.22,225.79-6.6,7.4-14,18.22-25.46,17.56-13.44-.57-20.21-18.57-8.94-27.4a15.26,15.26,0,0,1,21.45,2.39Z" transform="translate(-829.25 -902.71)" style="fill:#000072"/><path d="M2216.49,1461.4a15.36,15.36,0,0,1-5.45-1L1656,1248.19a15.28,15.28,0,0,1-8.65-20.12c5.87-14.13,145.54-345.77,305.59-324.37,68.35,9.17,136.12,103.73,201.44,281.06,47.42,128.75,76.75,256.71,77.05,258a15.27,15.27,0,0,1-14.89,18.65ZM1681.7,1225.35,2195,1421.56C2157,1268,2056.34,948.38,1948.82,934,1840.78,919.4,1725.12,1127.23,1681.7,1225.35Z" transform="translate(-829.25 -902.71)" style="fill:#000072"/><path d="M1879.05,1235.76c-5.14-5.49,33.33-219.84,90.12-216.17s137.4,302.27,137.4,302.27Z" transform="translate(-829.25 -902.71)" style="fill:#ff85b1"/><path d="M1879.07,1235.79l167.47,63.35c-16.79-58.16-63.76-211.34-106.25-262.58C1899.88,1086.73,1874.84,1231.31,1879.07,1235.79Z" transform="translate(-829.25 -902.71)" style="fill:#ff85b1"/><g style="opacity:0.2"><path d="M1879.07,1235.79l167.47,63.35c-16.79-58.16-63.76-211.34-106.25-262.58C1899.88,1086.73,1874.84,1231.31,1879.07,1235.79Z" transform="translate(-829.25 -902.71)" style="fill:#000072"/></g><path d="M2101.17,1336.14l-228-86.28a13.55,13.55,0,0,1-5.68-4.13,17.45,17.45,0,0,1-3.44-6.68,28.2,28.2,0,0,1-.51-8.89c2.78-25.82,9.43-50.81,16.13-75.74,11.43-39.05,24-78.58,46.66-113.11,20.93-31.48,49.37-41.67,73.75-6.48,8.25,11.21,14.6,23.15,20.58,35.2a4.56,4.56,0,0,1-8.06,4.26c-9.21-14.86-29.69-52.14-48.36-47.08-39.32,15.77-60.46,131.26-67.06,171.67-1.52,10.87-3.58,24-3.4,33.77a12.56,12.56,0,0,0-3.23-6.93l-.35-.38-5.75-3.86L2112,1307.59c18.54,7.57,8.42,35.15-10.8,28.55Z" transform="translate(-829.25 -902.71)" style="fill:#000072"/><path d="M1164.94,2003.36c4.73,15.42,10.07,30.89,16.23,46.26,82.95,208.59,301,399.62,833.8,248.69,659.52-186.86,326.1-685.16,326.1-685.16-62.29-142.9-285.79-560.59-743.79-450.67-2,.51-4,1-6,1.53C1138.73,1276.32,1077.41,1717,1164.94,2003.36Z" transform="translate(-829.25 -902.71)" style="fill:#fff"/><path d="M1164.94,2003.36c4.73,15.42,10.07,30.89,16.23,46.26a485.9,485.9,0,0,0,210,47.37c269.45,0,487.86-218.41,487.86-487.86,0-198.16-118.16-368.79-287.82-445.12C1138.73,1276.32,1077.41,1717,1164.94,2003.36Z" transform="translate(-829.25 -902.71)" style="fill:#ff8e1d"/><g style="opacity:0.6000000000000001"><path d="M1131.37,1794.13c6.92-244.87,128.54-503.23,459.87-585.47,2-.56,4-1,6.06-1.52,458-109.92,681.49,307.77,743.78,450.66,0,0,76,113.58,83.61,252.61,9.21-158.52-83.61-297.24-83.61-297.24-62.29-142.89-285.79-560.58-743.78-450.66-2,.51-4,1-6.06,1.52C1239.66,1251.31,1124.24,1536.84,1131.37,1794.13Z" transform="translate(-829.25 -902.71)" style="fill:#fff"/></g><g style="opacity:0.2"><path d="M1165,1983.63c4.74,15.42,10.08,30.89,16.24,46.26,82.94,208.59,301,399.63,833.8,248.69,399.06-113.07,434.58-340.19,400.39-501.91-20.26,132.51-119.23,272.76-406.19,354.08-532.8,150.93-750.86-40.1-833.81-248.69-6.15-15.37-11.5-30.84-16.23-46.26a774.44,774.44,0,0,1-27-125.44C1127,1806.59,1139.81,1901.45,1165,1983.63Z" transform="translate(-829.25 -902.71)" style="fill:#000072"/></g><path d="M1671,2367.64c-93.43,0-176.12-14.92-247.53-44.77-119.45-49.94-205.75-140-256.5-267.61-6-15-11.47-30.53-16.65-47.42v0c-47-153.79-58.57-386.41,50-578.06,80.69-142.43,211-236.82,387.21-280.57,1.21-.33,2.76-.72,4.32-1.1l1.72-.42c201.58-48.38,381.26-3.29,534.17,134,121.5,109.07,194.06,249.42,226.77,324.19,12.23,18.71,135.61,215,64.16,409.2-50.35,136.85-184.77,237.1-399.55,297.95C1890.57,2349.42,1774.24,2367.64,1671,2367.64Zm-491.48-368.75c4.92,16.07,10.09,30.8,15.8,45,76.75,193,280.51,391.22,815.48,239.68,204.74-58,332.3-151.86,379.14-278.94,68.25-185.15-60.28-381.09-61.59-383a15.24,15.24,0,0,1-1.3-2.38c-73.11-167.73-290.23-546.55-726.22-441.92l-1.74.42c-1.28.32-2.55.63-3.84,1-168.16,41.74-292,131.23-368.36,266.08C1123.12,1628,1134.38,1851.16,1179.54,1998.89Z" transform="translate(-829.25 -902.71)" style="fill:#000072"/><path d="M1761.37,1795c-13.85-18.55-31.46-37-51.48-47.92-26.53-14.63-61.49-15.39-85.33,4-25.56,23.7-29.47,62.72-32.21,96.17-1.54,18.22-27.45,20.12-31.77,2.52-9.91-46.34-5.29-99.07,30.32-134.8,26.06-24.9,62.74-32.42,97.45-26.38,32.25,5.7,61.18,26.78,80.06,52.34,9.29,12.69,16.64,25.46,22,40.37,6.09,18.48-18.7,29.86-29.08,13.73Z" transform="translate(-829.25 -902.71)" style="fill:#000072"/><path d="M2277.07,1679.26c-22.38-34-59.23-75.06-102.71-68.75-46.63,4.36-52.58,59.93-52.73,97.81a15.31,15.31,0,0,1-30.11,5.07c-1-4.05-1.71-7.25-2.4-10.84-11.49-60,10.74-128.84,79.69-136.63,63.89-8.55,116.17,45.13,136.1,100.81,6.08,17.88-18.53,28.74-27.84,12.53Z" transform="translate(-829.25 -902.71)" style="fill:#000072"/><path d="M2072.71,1777.36c-11.27-26.17-124.66,10.4-137.16,37.91s75.94,53,99.63,50.88S2080.54,1795.56,2072.71,1777.36Z" transform="translate(-829.25 -902.71)" style="fill:#000072"/><path d="M2057.58,2148.19a79.06,79.06,0,0,1-11.93-.89,15.27,15.27,0,0,1,4.59-30.19,55.64,55.64,0,0,0,40.19-10.24c11.38-8.47,18.3-21,20.57-37.23,6.26-44.81-31.54-61.9-31.92-62.06a15.28,15.28,0,0,1-5.3-24.13c14-15.88,29.92-43.94,21.91-53.09-10-11.46-38.88,5.44-45.49,10.24a15.26,15.26,0,0,1-23.75-8.54l-19.54-75.72a15.26,15.26,0,1,1,29.56-7.63l14.49,56.15c21.59-10.21,49.58-15.33,67.71,5.4,21.4,24.46,2.77,59.67-11,79.33,19,14.9,39.34,42.92,33.56,84.28-3.39,24.26-14.65,44.14-32.55,57.49A86.72,86.72,0,0,1,2057.58,2148.19Z" transform="translate(-829.25 -902.71)" style="fill:#000072"/><ellipse cx="1235.26" cy="1118.84" rx="27.55" ry="34.33" style="fill:#000072"/><rect x="2228.17" y="2688.33" width="73.74" height="359.92" transform="translate(4909.42 3102.02) rotate(146.41)" style="fill:#919191"/><path d="M2333.88,3053.87a15.54,15.54,0,0,1-3-.3,15.24,15.24,0,0,1-9.7-6.52l-199.1-299.84a15.26,15.26,0,0,1,4.27-21.16l61.43-40.79a15.27,15.27,0,0,1,21.17,4.27L2408,2989.37a15.26,15.26,0,0,1-4.27,21.16l-61.43,40.79A15.24,15.24,0,0,1,2333.88,3053.87ZM2155.94,2743l182.21,274.4,36-23.9-182.22-274.4Z" transform="translate(-829.25 -902.71)" style="fill:#000072"/><circle cx="1561.23" cy="2127.69" r="104.42" style="fill:#919191"/><path d="M2390.47,3137.36a107,107,0,1,1,107-107A107.09,107.09,0,0,1,2390.47,3137.36Zm0-208.85a101.88,101.88,0,1,0,101.88,101.88A102,102,0,0,0,2390.47,2928.51Z" transform="translate(-829.25 -902.71)" style="fill:#000072"/><path d="M2390.47,3150.08a119.69,119.69,0,1,1,119.7-119.69A119.82,119.82,0,0,1,2390.47,3150.08Zm0-208.84a89.16,89.16,0,1,0,89.16,89.15A89.25,89.25,0,0,0,2390.47,2941.24Z" transform="translate(-829.25 -902.71)" style="fill:#000072"/><circle cx="2390.48" cy="3030.39" r="48.55" transform="translate(-1461.54 -272.42) rotate(-13.28)" style="fill:#000072"/><polygon points="1543.64 1847.49 1138.1 1847.49 1138.1 1754.67 1516.16 1754.67 1543.64 1847.49" style="fill:#919191"/><g style="opacity:0.6000000000000001"><polygon points="1138.11 1754.69 1138.11 1793.32 1516.16 1793.32 1532.19 1847.51 1543.64 1847.51 1516.16 1754.69 1138.11 1754.69" style="fill:#fff"/></g><path d="M2372.89,2765.46H1967.34a15.26,15.26,0,0,1-15.26-15.26v-92.82a15.26,15.26,0,0,1,15.26-15.27h378.07a15.27,15.27,0,0,1,15.22,16.4c-2,26.2,6.28,53.53,25.18,83.56a15.26,15.26,0,0,1-12.92,23.39Zm-390.28-30.53H2346.9c-10.35-21.34-16-42-16.93-62.29H1982.61Z" transform="translate(-829.25 -902.71)" style="fill:#000072"/><path d="M2428.11,2931v263c0,141.67,114.8,256.47,256.47,256.47h382.58c141.67,0,256.48-114.8,256.48-256.47V2931a42.29,42.29,0,0,0-42.29-42.29H2470.4A42.29,42.29,0,0,0,2428.11,2931Z" transform="translate(-829.25 -902.71)" style="fill:#6b95ff"/><g style="opacity:0.6000000000000001"><path d="M2428.1,2931v37.25a42.29,42.29,0,0,1,42.29-42.29h811a42.29,42.29,0,0,1,42.29,42.29V2931a42.29,42.29,0,0,0-42.29-42.29h-811A42.29,42.29,0,0,0,2428.1,2931Z" transform="translate(-829.25 -902.71)" style="fill:#fff"/></g><g style="opacity:0.2"><path d="M2428.1,2931v263c0,141.67,114.8,256.47,256.48,256.47h382.57A255.83,255.83,0,0,0,3263,3359.71a255.43,255.43,0,0,1-112.77,26.05H2767.63c-141.68,0-256.48-114.8-256.48-256.47V2888.74h-40.76A42.29,42.29,0,0,0,2428.1,2931Z" transform="translate(-829.25 -902.71)" style="fill:#000072"/></g><path d="M3067.16,3465.79H2684.58c-149.83,0-271.74-121.9-271.74-271.74V2931a57.62,57.62,0,0,1,57.56-57.56h810.95a57.62,57.62,0,0,1,57.56,57.56v263C3338.91,3343.89,3217,3465.79,3067.16,3465.79ZM2470.4,2904a27.06,27.06,0,0,0-27,27v263c0,133,108.21,241.21,241.21,241.21h382.58c133,0,241.21-108.21,241.21-241.21V2931a27.06,27.06,0,0,0-27-27Z" transform="translate(-829.25 -902.71)" style="fill:#000072"/><path d="M3323.64,3013.09H2428.11a15.26,15.26,0,0,1-15.27-15.27V2931a57.62,57.62,0,0,1,57.56-57.56h810.95a57.62,57.62,0,0,1,57.56,57.56v66.81A15.27,15.27,0,0,1,3323.64,3013.09Zm-880.27-30.53h865V2931a27.06,27.06,0,0,0-27-27H2470.4a27.06,27.06,0,0,0-27,27Z" transform="translate(-829.25 -902.71)" style="fill:#000072"/><path d="M2487.62,2884.2H3374.3l14.66-64s92.82-402.22-63.51-417.29c0,0-57.86-107.88-192.56-59s-266.66,161.22-305.74,263.81c0,0-178.31,12.21-217.39,119.69,0,0-133-95.27-159.28-85.5S2438.77,2816.37,2487.62,2884.2Z" transform="translate(-829.25 -902.71)" style="fill:#ff956b"/><g style="opacity:0.6000000000000001"><path d="M2438.48,2717.4c1.68-17,5.65-28.4,12-30.74,26.31-9.77,159.28,85.49,159.28,85.49,39.08-107.47,217.4-119.69,217.4-119.69,39.08-102.59,171-214.95,305.73-263.8s192.56,59,192.56,59c65.8,6.31,87.48,81.37,90.53,166,3.16-101.32-13.23-203.4-90.53-210.83,0,0-57.86-107.89-192.56-59s-266.65,161.21-305.73,263.8c0,0-178.32,12.21-217.4,119.69,0,0-133-95.26-159.28-85.49C2439.45,2646,2435.58,2677.35,2438.48,2717.4Z" transform="translate(-829.25 -902.71)" style="fill:#fff"/></g><path d="M3374.3,2899.47H2487.62a15.28,15.28,0,0,1-12.39-6.34c-44.25-61.46-62.31-196.35-48.13-242.89,3.65-12,9.73-19.59,18.07-22.68,12.16-4.51,33-2.76,102.84,40.41,21.76,13.46,42.15,27.19,55.39,36.31,46.39-86.55,176.22-106.86,213.08-110.93,44-102.56,175.63-214.68,311.2-263.83,124.39-45.11,190.06,34.48,206.85,59.21,24.66,4.24,45,17.31,60.57,38.92,74.94,104.11,11.47,384.1,8.73,396l-14.65,64A15.26,15.26,0,0,1,3374.3,2899.47Zm-878.57-30.53h866.4l11.94-52.16c.65-2.8,63.16-278.37-3.76-371.3-11.93-16.57-27.09-25.53-46.33-27.38a15.28,15.28,0,0,1-12-8c-2.12-3.87-53.75-95.46-173.91-51.9-132,47.86-259.55,157.44-296.67,254.89a15.28,15.28,0,0,1-13.22,9.8c-1.69.12-168.89,12.87-204.1,109.67a15.27,15.27,0,0,1-23.24,7.2c-55.48-39.75-124.39-81.25-143.8-83.3C2445.51,2679.45,2456,2806.23,2495.73,2868.94Z" transform="translate(-829.25 -902.71)" style="fill:#000072"/><path d="M2607.78,2727.7c-13.54,29.69-14.84,64.18-9.07,96.1a5.31,5.31,0,0,1-10.21,2.77,209.51,209.51,0,0,1-8.21-25.85c-6.64-27.82-8.26-57.79-.45-85.67,7.92-21.41,38.81-7.46,27.94,12.65Z" transform="translate(-829.25 -902.71)" style="fill:#000072"/><path d="M2543.84,2684.79c-13.93,42.5-14.52,89.34-3.54,132.68,1.81,6.55-7.72,9.85-10.28,3.51a263.91,263.91,0,0,1-17.2-134.94c.45-3.23.92-6.15,1.74-9.92a15.31,15.31,0,1,1,29.28,8.67Z" transform="translate(-829.25 -902.71)" style="fill:#000072"/><path d="M2609.76,2727.37s18.31,50.07,70.22,73.28,171.6-19.29,171.6-19.29,28.09-106.51-24.43-173.68C2827.15,2607.68,2648.84,2619.89,2609.76,2727.37Z" transform="translate(-829.25 -902.71)" style="fill:#ff956b"/><path d="M2721.42,2822.83c-17.76,0-34.36-2.3-47.67-8.25-57.14-25.54-77.49-79.68-78.33-82a15.23,15.23,0,0,1,0-10.46c42-115.48,223-129.18,230.69-129.7a15.26,15.26,0,0,1,13.07,5.82c56.54,72.32,28.39,182.33,27.17,187a15.25,15.25,0,0,1-9.66,10.49C2846.9,2799.22,2778.26,2822.83,2721.42,2822.83Zm-95.13-95.77c5.88,12.18,23.91,43.55,59.92,59.65,35.15,15.71,115.45-5,152.31-17,4.65-23.58,15.05-95.61-18.58-145.93C2786.36,2627.62,2660.53,2647.35,2626.29,2727.06Zm-16.53.31h0Z" transform="translate(-829.25 -902.71)" style="fill:#000072"/><path d="M2780.72,2683.9c-55.78,11.17-111,34.34-154.75,71-15.93,12.28-34.62-10.65-19.24-23.77a325.79,325.79,0,0,1,83.44-42.36,394.28,394.28,0,0,1,88.75-20,7.62,7.62,0,0,1,1.8,15.14Z" transform="translate(-829.25 -902.71)" style="fill:#000072"/><path d="M3039.64,2604.63a15.26,15.26,0,0,1-15.17-13.75c-6.35-63.49,13.25-125.69,14.08-128.31a15.27,15.27,0,0,1,29.09,9.3h0c-.19.58-18.49,58.94-12.79,116a15.26,15.26,0,0,1-13.67,16.71C3040.66,2604.6,3040.15,2604.63,3039.64,2604.63Z" transform="translate(-829.25 -902.71)" style="fill:#000072"/><path d="M2983.62,2549.31a15.27,15.27,0,0,1-7.52-28.56c58.54-33,130.17-12.58,133.2-11.69a15.27,15.27,0,0,1-8.57,29.31h0c-.62-.18-62.48-17.62-109.63,9A15.11,15.11,0,0,1,2983.62,2549.31Z" transform="translate(-829.25 -902.71)" style="fill:#000072"/><path d="M3327.17,2418.07c-30.14,8.35-50.36,36-60.54,65-13.42,34.72-52.51,39.3-81.07,21-8.73-5.52-2.28-18.72,7.42-15.56,15.63,3.47,37.1,5,44-12.41,2.56-6.82,4.43-14.23,7.4-21,12.44-31.5,40.3-60.35,75-66.73,22.37-6.18,30.58,25.3,7.82,29.72Z" transform="translate(-829.25 -902.71)" style="fill:#000072"/><path d="M3247.28,2884.22l16.65,186.85a62.53,62.53,0,0,0,40.85,53.48c26,9.34,61.26,11.86,91.5-21,0,0,41.53-2.44,56.18-58.62,0,0,105.41-35.55-67-209.52Z" transform="translate(-829.25 -902.71)" style="fill:#ff956b"/><g style="opacity:0.6000000000000001"><path d="M3247.3,2884.21l16.64,186.86a62.84,62.84,0,0,0,32.67,49.87,61.58,61.58,0,0,1-2.24-11.81l-13.51-151.65a45.55,45.55,0,0,1,30.2-47l104.88-37c11.55,11.65,21.83,22.65,31,33.08-14.81-20.66-34.8-44.22-61.47-71.14Z" transform="translate(-829.25 -902.71)" style="fill:#fff"/></g><path d="M3337.48,3145.87a112.09,112.09,0,0,1-37.85-6.95c-28.22-10.11-48.21-36.21-50.9-66.5l-16.65-186.84a15.24,15.24,0,0,1,10.11-15.75l138.2-48.84a15.26,15.26,0,0,1,15.93,3.65c78.17,78.88,112.25,142.31,101.32,188.53a65.52,65.52,0,0,1-32.41,42.56c-14.91,47-47.44,59-61.47,62C3385,3136.36,3362.27,3145.87,3337.48,3145.87Zm-73.94-251.2,15.6,175a47.33,47.33,0,0,0,30.79,40.47c29.69,10.65,55,4.92,75.12-17a15.28,15.28,0,0,1,10.34-4.91c1-.1,30.84-3.28,42.31-47.23a15.25,15.25,0,0,1,9.89-10.62,35.09,35.09,0,0,0,20.45-24.81c4.32-19.39-1.5-64.7-86.65-152.61Z" transform="translate(-829.25 -902.71)" style="fill:#000072"/><path d="M3437.74,3048.94a580.22,580.22,0,0,0-20-70.49c-8.31-23-18.07-45.7-31.8-65.63a5.51,5.51,0,0,1,8.53-7c17.42,19.34,30.6,41.62,42.32,64.32a602.39,602.39,0,0,1,30.43,70.7,15.3,15.3,0,1,1-29.45,8.06Z" transform="translate(-829.25 -902.71)" style="fill:#000072"/><path d="M3381.41,3107c-10.11-55.87-21.41-112.09-37.86-166.46-1.93-6.43,7.41-10,10.19-3.78,11.62,26.51,21.57,53.62,31,80.87s18.16,54.67,26.41,82.48a15.29,15.29,0,1,1-29.74,6.89Z" transform="translate(-829.25 -902.71)" style="fill:#000072"/><path d="M3130,2884.22s-4.89,172.9-83.05,194.89-163-78.17-159.68-124.58,110.82-119.14,110.82-119.14Z" transform="translate(-829.25 -902.71)" style="fill:#ff956b"/><g style="opacity:0.6000000000000001"><path d="M2896.63,2990.51c12.34-31,57.12-68.63,84.87-89.79a50.21,50.21,0,0,1,47.93-7.17l96.55,35.74c3.51-26.15,4.07-45.08,4.07-45.08l-131.9-48.8s-107.48,72.72-110.84,119.13C2886.6,2964.61,2890,2977.18,2896.63,2990.51Z" transform="translate(-829.25 -902.71)" style="fill:#fff"/></g><path d="M3024.11,3097.49c-29.11,0-59.77-12.24-88.65-35.8-39-31.79-65.62-77.31-63.38-108.26,3.7-51.21,98.53-117.85,117.5-130.69a15.24,15.24,0,0,1,13.86-1.67l131.9,48.84a15.25,15.25,0,0,1,9.95,14.74c-.53,18.85-7.69,184.83-94.17,209.15A99.45,99.45,0,0,1,3024.11,3097.49Zm-23.83-245c-41.52,29.21-95.91,77.64-97.75,103.17-1.3,18.07,18.3,54.71,52.23,82.4,17.42,14.21,52,36.54,88.1,26.38,51.25-14.42,68.21-118.82,71.41-169.75Z" transform="translate(-829.25 -902.71)" style="fill:#000072"/><path d="M2981.83,3065c21.66-28.09,43.07-57,62.62-86.66,6.48-9.94,12.83-20,18.34-30.37a4.1,4.1,0,0,1,7.5,3.26c-4,11.57-8.81,22.68-13.76,33.72-15,33.08-31.75,65-49.24,96.9a15.32,15.32,0,1,1-25.46-16.85Z" transform="translate(-829.25 -902.71)" style="fill:#000072"/><path d="M2917.69,3020.16l93.65-95.93c3.67-3.8,9.84,1.27,6.75,5.59l-76.89,109.83c-13.27,17.36-38.13-3.16-23.51-19.49Z" transform="translate(-829.25 -902.71)" style="fill:#000072"/><path d="M2978.59,2727.37c-25.86-51.28-274.79,30.53-298.61,73.28s-42.13,83.57-42.13,83.57h298.72S3013.4,2796.37,2978.59,2727.37Z" transform="translate(-829.25 -902.71)" style="fill:#ff956b"/><g style="opacity:0.6000000000000001"><path d="M2637.86,2884.21h25c6.77-13.54,15-29.57,24.07-45.8,23.81-42.75,272.71-124.52,298.61-73.28.76,1.47,1.42,2.95,2.09,4.43.35-14.25-2.14-28.6-9-42.19-25.9-51.29-274.8,30.53-298.61,73.28S2637.86,2884.21,2637.86,2884.21Z" transform="translate(-829.25 -902.71)" style="fill:#fff"/></g><path d="M2887.21,2754.24s-11.21,92-58.84,130" transform="translate(-829.25 -902.71)" style="fill:#ff956b"/><path d="M2936.57,2899.49H2637.85a15.26,15.26,0,0,1-13.93-21.52c.76-1.69,18.86-41.92,42.73-84.75s192.3-99.16,269.21-97.44c29.44.6,48.4,8.92,56.37,24.71h0c39,77.3-40.75,169.88-44.16,173.78A15.26,15.26,0,0,1,2936.57,2899.49ZM2661.87,2869h267.44c14.65-18.79,61-84.49,35.65-134.72h0c-1.39-2.75-9.21-7.51-29.73-7.94-79.18-1.69-227.68,56.24-241.91,81.78C2680.62,2830.86,2669.43,2853.27,2661.87,2869Z" transform="translate(-829.25 -902.71)" style="fill:#000072"/><path d="M2893.71,2755c-3.58,37.94-11.92,75.2-30.48,109a134.39,134.39,0,0,1-25.35,32.16,15.3,15.3,0,1,1-19-23.88c17.47-12.46,30.22-32.1,39.69-51.86a303.62,303.62,0,0,0,22.21-67.2c1.66-7.92,13.53-6.29,12.95,1.81Z" transform="translate(-829.25 -902.71)" style="fill:#000072"/><path d="M2797.28,2782c-2.5,44.26-20.76,89.17-58.05,115.3-18.26,12.34-35.23-15.32-15.91-26.06,33.19-17.36,52.38-54.57,59.2-90.39,1.2-9.34,15.08-8.26,14.76,1.15Z" transform="translate(-829.25 -902.71)" style="fill:#000072"/><circle cx="2259.67" cy="2544.92" r="81.98" style="fill:#7471d9"/><circle cx="1833.58" cy="2544.92" r="81.98" style="fill:#7471d9"/><path d="M3088.92,3544.87a97.25,97.25,0,1,1,97.25-97.25A97.36,97.36,0,0,1,3088.92,3544.87Zm0-164a66.72,66.72,0,1,0,66.71,66.71A66.79,66.79,0,0,0,3088.92,3380.91Z" transform="translate(-829.25 -902.71)" style="fill:#000072"/><circle cx="3088.92" cy="3447.62" r="32.52" transform="translate(-1538.72 -100.79) rotate(-13.28)" style="fill:#000072"/><path d="M2662.83,3544.87a97.25,97.25,0,1,1,97.25-97.25A97.36,97.36,0,0,1,2662.83,3544.87Zm0-164a66.72,66.72,0,1,0,66.71,66.71A66.78,66.78,0,0,0,2662.83,3380.91Z" transform="translate(-829.25 -902.71)" style="fill:#000072"/><circle cx="2662.83" cy="3447.62" r="32.52" transform="translate(-1347.11 -431.65) rotate(-9.22)" style="fill:#000072"/><path d="M1492.13,3041.48c29.19,12.52,58.08,25.28,87,38.25,28.41,12.93,58.48,25.26,86.66,42.76C1731,3160.93,1769.71,3223.93,1784,3278c2.49,8.83,14.26,48.14,21.86,70.24l.79,4.73a14.71,14.71,0,0,0-1.06-5.46c-.18-.44,0-.09.19.5,40.74,87.23,114,126.16,229.36,81.7,5.53-2.16,10.21-.12,16.1.13,39.23,3.63,87-7.29,102.23-47.74,3.08-6.77,10.16-9.92,14.94-15.62,22-22.15,36.78-54.7,27.48-85.71-9.56-31.34-49.22-32.11-76.85-29.33-4.81.54-10,1.36-14.14,2.26a15.28,15.28,0,0,1-18.13-11.73c-2.09-59.27-5.23-119.75-21.48-176.92-23.64-77-72.85-148-141.89-190.75-39.57-24.62-84.72-39.46-131-45.25-10.85-1.41-9.51-17.94,1.87-17.16,48.77,4.47,97.51,18.41,140.4,43.73,75.53,44,130.23,118.71,157.86,200.95,11,35.38,16.6,72.38,20.42,108.94,2.51,24.37,3.81,48.44,4,73.26l-18.7-14.88c23.42-4.62,45.85-5.85,69.53-1,58.87,11,73.68,71.84,52.2,121.34a148.46,148.46,0,0,1-43.18,55.77l5-6.55c-20.11,53.35-80.84,72-133.16,66.83-3.52-.32-6.59-.62-10.66-1.28l8.12-.79c-24.22,9.12-49.54,16.49-76.08,19.26-101.59,11.37-162.8-50.83-193-119.14.21.56.35.87.15.41a15.07,15.07,0,0,1-1.07-5.57l.78,4.73c-7.79-23.39-15.23-46.93-22-70.76l-.59-4.11a13.84,13.84,0,0,0,.58,4.05l.18.61-.21-.69a14.69,14.69,0,0,1-.6-4.17l.59,4.1c-28.55-100.46-96.93-141.07-188.21-179.29-28.74-12.89-57.64-25.66-86.51-38-18-8.21-7.12-35.51,12-28.06Z" transform="translate(-829.25 -902.71)" style="fill:#000072"/><path d="M2104.85,3253.66c-34.67,4.92-70,15.4-100.39,33.37-5.63,3.52-11.47-4.32-6.45-8.68,29.28-25.17,63.85-42.44,100.52-54.56,21.42-5.69,28.26,26.37,6.32,29.87Z" transform="translate(-829.25 -902.71)" style="fill:#000072"/><path d="M2152.6,3385.07c6.49-28.94-6-59.93-33-73.61-9-5.61-1.75-19.41,8-15.25,37.87,13.6,59.22,55,55.1,94.16-2.37,22.74-35.67,16.87-30.07-5.3Z" transform="translate(-829.25 -902.71)" style="fill:#000072"/><path d="M2026.67,3435.18c8-29.65-2.28-62.33-20.74-86.26-3-3.89-6.38-7.52-9.55-11.35-5-6.07,3.31-14.13,9.22-9,16.21,13.13,30.47,29.45,39.49,48.42,9.5,20,14.42,43.2,11.23,65.46-5.3,19.41-34,12.39-29.65-7.3Z" transform="translate(-829.25 -902.71)" style="fill:#000072"/><path d="M1676.15,3485.65c5.3-24.68,7.06-51.69,1.45-76.6a5.52,5.52,0,0,1,10.31-3.74,163.73,163.73,0,0,1,13.67,40.55,231,231,0,0,1,4.92,43.27c-1,22.86-34.57,19-30.35-3.48Z" transform="translate(-829.25 -902.71)" style="fill:#000072"/><path d="M1537.53,3480.87c11.48-29.46,21.36-63,17.23-94.76a5.48,5.48,0,0,1,10.54-2.88c6.12,17.3,7.44,35.53,7.21,53.31a300.55,300.55,0,0,1-5.85,53.45c-5.5,21.55-36.91,11.75-29.13-9.12Z" transform="translate(-829.25 -902.71)" style="fill:#000072"/><path d="M1710.4,3366.65c-35.4-21.2-77.27-33.58-118.72-32.41l-10.48.5c-3.47.53-12.19,1.6-15.6,2.16-3.8.87-12.27,2.89-16.13,3.77-9.18,2-13-11.35-4-14.42l10.93-3.61c25.56-8.17,53.45-10.36,80.09-7.71a262.51,262.51,0,0,1,78.42,20.2c3.69,1.61,7,3.12,11.12,5.27a15.28,15.28,0,1,1-15.58,26.25Z" transform="translate(-829.25 -902.71)" style="fill:#000072"/><path d="M2237.89,2653.3c-7.1-96.11-33.35-195.13-90.8-273.8-6.87-10.31-19.08-23.15-27.21-32.57-7.73-9,5.27-21,13.63-12.44,5.51,5.94,17.58,18.25,22.61,24.14,30.31,36.45,54.24,78.85,71.44,122.89a652,652,0,0,1,35,126.24c2.55,14.49,4.51,28.63,5.86,43.92a15.28,15.28,0,1,1-30.49,1.62Z" transform="translate(-829.25 -902.71)" style="fill:#000072"/><path d="M1417.77,2547.48s24.42,124.57,212.5,202.74,258.92,0,258.92,0,24.43,54.81,78.17,34.71c0,0,67.43,45.9,107-15.17,0,0,53.54-7.38,52.67-95.31a136,136,0,0,0-.91-14.15v-.15l0-.1c-2.55-22.34-10.64-47.08-25.19-70.69-42.85-69.56-142.08-129.05-322.68-85.85,0,0-17.46-33.63-62.39-72.21a410.31,410.31,0,0,0-73.28-49.92l-42.8,31.65-127.37,94.15Z" transform="translate(-829.25 -902.71)" style="fill:#fff"/><g style="opacity:0.2"><path d="M1599.69,2413a789.64,789.64,0,0,0,116.08,18.27,410.31,410.31,0,0,0-73.28-49.92Z" transform="translate(-829.25 -902.71)" style="fill:#460063"/></g><path d="M1432.73,2544.52c27.21,88.54,107.74,148.16,189.39,185.21,73.33,32.5,179.9,63.52,251,14.28,1.25-.94,3.69-3,4.8-4.07a15.58,15.58,0,0,1,22.69.24c4.34,6.13,7.63,13.68,13.21,19.09,14.21,15.57,30.83,17.75,50,10.93,6.89-1.88,11.66,1.91,17.37,5.16,28.28,15.66,62.09,16.52,80.4-13.93l10.73-6.82c22.88-6.22,34-30.89,37.63-53.19,9.81-59.39-20.38-119.27-68.64-154.27-74.34-54-173.85-49-259.54-28.81a15.44,15.44,0,0,1-16.91-7.46c-1.28-2.67-3.26-6.35-4.94-9.15-13.19-22.2-30.08-41.87-48.53-60.06-21.78-21-46.27-39.24-72.13-55a6.23,6.23,0,0,1,6.22-10.79c6.95,3.56,14,6.95,20.9,10.68,41.71,22.81,80.25,52.25,110.57,89.26a179.77,179.77,0,0,1,14.81,20.65l-17.09-7.81a618.34,618.34,0,0,1,71.52-12.49c127.28-15.63,265.31,33.93,293.6,172.26,7.83,48.17-1.28,110.85-51.11,132.87-4.56,1.59-6.82,2.72-12.2,3.58l10.73-6.82c-20.58,33.65-59.64,46.44-96.65,34.14a126.13,126.13,0,0,1-31.74-14.62l13.93,1.68c-40.08,15.8-79.77-5.34-97.46-42.83l25.26,4c-8,8.31-16.47,13.26-26,18.79-83.65,41.74-184.26,14-264.87-21.66-67.37-30.16-131.68-74.66-173.82-137-12.53-18.43-23.29-38.62-30.17-59.9-1-3.54-2.08-6.35-2.85-10.33a15.27,15.27,0,1,1,30-5.87Z" transform="translate(-829.25 -902.71)" style="fill:#000072"/><path d="M1889.18,2750.19l-30.53-92.82h-27.48a28.71,28.71,0,0,0-28.71,28.71v35.41a28.7,28.7,0,0,0,28.71,28.7Z" transform="translate(-829.25 -902.71)" style="fill:#919191"/><path d="M1889.18,2765.46h-58a44,44,0,0,1-44-44v-35.42a44,44,0,0,1,44-44h27.48a15.26,15.26,0,0,1,14.5,10.5l30.53,92.82a15.25,15.25,0,0,1-14.5,20Zm-58-92.82a13.45,13.45,0,0,0-13.44,13.43v35.42a13.46,13.46,0,0,0,13.44,13.44h36.92l-20.49-62.29Z" transform="translate(-829.25 -902.71)" style="fill:#000072"/><path d="M1955.15,2775.74c20.68-27.24,21.63-65.11,7.83-95.71-3.89-11.62,12.52-18.44,18-7.51,20.32,35.68,21.67,81.52,1.06,117.51-4.26,9.46-14.94,14.46-24.09,8.12a15.32,15.32,0,0,1-2.84-22.41Z" transform="translate(-829.25 -902.71)" style="fill:#000072"/><path d="M2059.23,2767.53c6.49-32.41,7.16-68.94-9.09-98.73-3.46-6.46,5.53-12.4,10.1-6.68,24.2,30.83,30.38,71.64,29.2,109.94-2.27,21.91-34.46,17.14-30.21-4.53Z" transform="translate(-829.25 -902.71)" style="fill:#000072"/><g style="opacity:0.2"><path d="M1417.77,2547.48s24.42,124.57,212.5,202.74,258.92,0,258.92,0,24.43,54.81,78.17,34.71c0,0,67.43,45.9,107-15.17,0,0,53.54-7.38,52.67-95.31a136,136,0,0,0-.91-14.15v-.15l0-.1-25.19-70.69c11.91,81.63-36.34,114.45-36.34,114.45-20.76,60.45-63.25,38.62-63.25,38.62-73.13-27.32-29-65.49-122.18-117.45s-76.59,96.54-246,14.86c-72.46-34.91-124.67-85.85-160.7-132.66-48.19-62.65-67.38-118-67.38-118l-.1.2C1396.6,2433.75,1400.06,2486,1417.77,2547.48Z" transform="translate(-829.25 -902.71)" style="fill:#000072"/></g><g style="opacity:0.2"><path d="M1403.11,3382.86c58.62,85.49,85.49,112.36,149,102.59,0,0,70.84,50.23,139.23,1.89,0,0,51.3,20.1,75.72-33.64s-48.85-100.15-48.85-100.15l51.29-70.84c0,.05.06.16.06.21.4,2.8,5.49,34.24,21.83,70.12,0,.05,0,.1,0,.2,30.38,66.62,99.43,148.39,249.2,90.69,0,0,97.7,17.1,127-56.18,0,0,58.63-44,44-107.48-3.87-16.84-13.43-27.68-25.39-34.45-9.93,46.56-35.37,78.27-35.37,78.27-60.76,43.86-128.7,33.07-128.7,33.07s-59.64,48.24-133,8.5S1859.85,3072.1,1633,2997.84c-282.12-92.36-232.35-296.47-232.35-296.47-14.66,58.62-68.4,263.8,85.49,354.18,0,0-15.37,50.33-38.73,92.77,230.17,62,110,235.25,38.73,205.23-43.61-18.37-80.66-67.12-103.71-103.91C1368.81,3286.89,1368.45,3332.33,1403.11,3382.86Z" transform="translate(-829.25 -902.71)" style="fill:#000072"/></g><g style="opacity:0.2"><path d="M1835.15,2832.86c1.43.66,14.45,6.41,34.6,11.71Q1853.27,2838.23,1835.15,2832.86Z" transform="translate(-829.25 -902.71)" style="fill:#460063"/></g></svg>